<svg xmlns="http://www.w3.org/2000/svg" version="1.1" xmlns:xlink="http://www.w3.org/1999/xlink" xmlns:svgjs="http://svgjs.com/svgjs" width="512" height="512" x="0" y="0" viewBox="0 0 512 512" style="enable-background:new 0 0 512 512" xml:space="preserve" class=""><g transform="matrix(1,0,0,1,0,1.1368683772161603e-13)"><path xmlns="http://www.w3.org/2000/svg" d="m497 241h-19.939c-3.556-53.537-26.094-103.381-64.386-141.675-38.294-38.293-88.138-60.831-141.675-64.386v-19.939c0-8.284-6.716-15-15-15s-15 6.716-15 15v19.939c-53.537 3.556-103.381 26.093-141.675 64.387-38.293 38.293-60.831 88.137-64.386 141.674h-19.939c-8.284 0-15 6.716-15 15s6.716 15 15 15h19.939c3.556 53.537 26.094 103.381 64.386 141.674 38.294 38.294 88.138 60.831 141.675 64.387v19.939c0 8.284 6.716 15 15 15s15-6.716 15-15v-19.939c53.537-3.556 103.381-26.093 141.675-64.387 38.293-38.293 60.831-88.138 64.386-141.674h19.939c8.284 0 15-6.716 15-15s-6.716-15-15-15zm-226 205.986v-18.844c0-8.284-6.716-15-15-15s-15 6.716-15 15v18.844c-93.698-7.291-168.695-82.288-175.986-175.986h18.844c8.284 0 15-6.716 15-15s-6.716-15-15-15h-18.844c7.291-93.698 82.288-168.695 175.986-175.986v18.843c0 8.284 6.716 15 15 15s15-6.716 15-15v-18.843c93.698 7.291 168.695 82.288 175.986 175.986h-18.844c-8.284 0-15 6.716-15 15s6.716 15 15 15h18.844c-7.291 93.698-82.288 168.695-175.986 175.986z" fill="#bd00ff" data-original="#000000" class=""></path></g></svg>