<svg width="8" height="8" viewBox="0 0 8 8" fill="none" xmlns="http://www.w3.org/2000/svg">
<path d="M7.00569 7.16916C7.14863 7.16916 7.2645 7.28274 7.2645 7.42286C7.2645 7.55129 7.16714 7.65744 7.04081 7.67423L7.00569 7.67655L4.30557 7.67655C4.16264 7.67655 4.04676 7.56297 4.04676 7.42286C4.04676 7.29442 4.14413 7.18828 4.27045 7.17148L4.30557 7.16916L7.00569 7.16916ZM4.37955 1.35572C4.86954 0.875405 5.66429 0.875405 6.15428 1.35572L6.66296 1.85435C7.15296 2.33467 7.15296 3.11371 6.66296 3.59403L2.83952 7.34194C2.62089 7.55626 2.32447 7.67651 2.01507 7.67651H0.449239C0.303778 7.67651 0.186887 7.55904 0.190512 7.41649L0.2299 5.86773C0.237731 5.57501 0.35992 5.29594 0.57112 5.08891L4.37955 1.35572ZM4.08353 2.36274L0.937129 5.44769C0.819731 5.56277 0.751694 5.71816 0.747345 5.88071L0.714481 7.16894L2.01507 7.16912C2.16811 7.16912 2.31529 7.11631 2.43145 7.02092L2.47351 6.98317L5.6355 3.88367L4.08353 2.36274ZM5.78827 1.7145C5.50042 1.43233 5.03341 1.43233 4.74556 1.7145L4.44981 2.00393L6.00139 3.52486L6.29695 3.23525C6.56881 2.96876 6.58392 2.54562 6.34226 2.26172L6.29695 2.21313L5.78827 1.7145Z" fill="#BD00FF"/>
</svg>
