<svg width="11" height="10" viewBox="0 0 11 10" fill="none" xmlns="http://www.w3.org/2000/svg">
<path d="M4.88944 0.499008C6.0115 0.499008 6.92731 1.38276 6.97873 2.49212L6.981 2.59058V3.03058C6.981 3.22593 6.82264 3.38429 6.6273 3.38429C6.44823 3.38429 6.30025 3.25122 6.27682 3.07858L6.2736 3.03058V2.59058C6.2736 1.8535 5.69729 1.25087 4.97076 1.20877L4.88944 1.20642H2.59036C1.85369 1.20642 1.25113 1.78278 1.20902 2.50926L1.20667 2.59058V7.83954C1.20667 8.57655 1.78293 9.17924 2.50908 9.22134L2.59036 9.2237H4.89415C5.62861 9.2237 6.22929 8.64947 6.27125 7.92573L6.2736 7.84472V7.4C6.2736 7.20466 6.43195 7.0463 6.6273 7.0463C6.80637 7.0463 6.95435 7.17936 6.97777 7.35201L6.981 7.4V7.84472C6.981 8.96301 6.10061 9.87596 4.99524 9.9287L4.89415 9.9311H2.59036C1.46868 9.9311 0.552955 9.04726 0.501544 7.93798L0.499268 7.83954V2.59058C0.499268 1.4686 1.38294 0.552706 2.49194 0.501285L2.59036 0.499008H4.88944ZM8.65995 3.55541L8.6997 3.58957L10.0806 4.9643C10.093 4.97664 10.1039 4.98919 10.1139 5.00248L10.0806 4.9643C10.095 4.97864 10.1079 4.99392 10.1193 5.00993C10.1274 5.02113 10.1348 5.03297 10.1415 5.04525C10.1427 5.04764 10.144 5.04998 10.1452 5.05233C10.1512 5.06364 10.1565 5.07537 10.1611 5.08742C10.163 5.09269 10.165 5.09803 10.1667 5.1034C10.1702 5.11332 10.1731 5.12352 10.1755 5.13391C10.1766 5.13946 10.1778 5.14496 10.1788 5.15049C10.1808 5.16013 10.1822 5.17007 10.1832 5.18014C10.1837 5.18715 10.1842 5.19408 10.1844 5.20103C10.1848 5.20568 10.1849 5.21033 10.1849 5.21501L10.1845 5.22837C10.1842 5.23562 10.1837 5.24287 10.183 5.25011L10.1849 5.21501C10.1849 5.2371 10.1828 5.25872 10.1789 5.27969C10.1778 5.28493 10.1767 5.29045 10.1754 5.29596C10.173 5.30689 10.17 5.31748 10.1665 5.32786C10.1647 5.33268 10.1629 5.33756 10.161 5.34241C10.1567 5.35415 10.1516 5.36551 10.1459 5.37653C10.1445 5.37902 10.143 5.38181 10.1415 5.38459C10.1252 5.41445 10.1049 5.44145 10.0813 5.46511L10.0806 5.46558L8.69974 6.84078C8.56133 6.97863 8.33737 6.97817 8.19953 6.83975C8.07421 6.71392 8.0632 6.5174 8.16623 6.37914L8.20055 6.33954L8.97353 5.56829L4.15255 5.56871C3.95721 5.56871 3.79885 5.41035 3.79885 5.21501C3.79885 5.03594 3.93192 4.88796 4.10456 4.86453L4.15255 4.86131L8.97448 4.86088L8.2006 4.0909C8.07475 3.9656 8.06289 3.76913 8.16533 3.63043L8.19948 3.59068C8.32478 3.46483 8.52125 3.45298 8.65995 3.55541Z" fill="#BD00FF"/>
</svg>
