<svg width="10" height="10" viewBox="0 0 10 10" fill="none" xmlns="http://www.w3.org/2000/svg">
<path d="M3.79374 0.707572C4.39267 0.231723 5.23213 0.212858 5.84946 0.650979L5.92539 0.707572L8.79699 3.00476C9.11296 3.24952 9.30679 3.61313 9.33981 4.00881L9.34452 4.1036V7.92784C9.34452 8.91349 8.5659 9.71522 7.59015 9.7671H6.65166C6.20316 9.75814 5.8405 9.40915 5.80749 8.97056L5.80277 8.90406V7.55574C5.80277 7.40908 5.69383 7.28693 5.54811 7.26288L5.50566 7.25816H4.246C4.09556 7.26288 3.97295 7.37135 3.95408 7.51283L3.94936 7.55574V8.89982C3.94936 8.92764 3.94418 8.96066 3.93993 8.98424L3.93522 8.99414L3.93003 9.02668C3.87391 9.42802 3.54378 9.73409 3.13349 9.76285L3.07218 9.7671H2.22801C1.24235 9.7671 0.43591 8.99414 0.384033 8.02216V4.1036C0.388278 3.70226 0.563243 3.32969 0.855638 3.07031L3.79374 0.707572ZM5.51509 1.22162C5.15667 0.933942 4.64734 0.920266 4.27006 1.16974L4.19884 1.22162L1.33149 3.53296C1.1669 3.6551 1.06786 3.83903 1.04428 4.03239L1.03909 4.10784V7.92784C1.03909 8.55508 1.52956 9.06912 2.15255 9.10685H3.07218C3.17593 9.10685 3.26554 9.03658 3.27921 8.93755L3.28912 8.85266L3.29383 8.82861V7.55574C3.29383 7.05113 3.68055 6.64083 4.17574 6.60263H5.50566C6.00981 6.60263 6.4201 6.98982 6.4583 7.485V8.90406C6.4583 9.0031 6.52904 9.08846 6.62336 9.10685H7.50008C8.13203 9.10685 8.64608 8.62157 8.6838 8.0033L8.68899 7.92784V4.10784C8.6838 3.90552 8.59939 3.71641 8.45319 3.5754L8.39188 3.52305L5.51509 1.22162Z" fill="#BD00FF"/>
</svg>
