<svg xmlns="http://www.w3.org/2000/svg" version="1.1" xmlns:xlink="http://www.w3.org/1999/xlink" xmlns:svgjs="http://svgjs.com/svgjs" width="512" height="512" x="0" y="0" viewBox="0 0 512 512" style="enable-background:new 0 0 512 512" xml:space="preserve" class=""><g><path xmlns="http://www.w3.org/2000/svg" d="m497 30h-302c-8.289062 0-15 6.707031-15 15 0 8.289062 6.710938 15 15 15h302c8.289062 0 15-6.710938 15-15 0-8.292969-6.710938-15-15-15zm0 0" fill="#bd00ff" data-original="#000000" style="" class=""></path><path xmlns="http://www.w3.org/2000/svg" d="m195 120h151c8.289062 0 15-6.710938 15-15 0-8.292969-6.710938-15-15-15h-151c-8.289062 0-15 6.707031-15 15 0 8.289062 6.710938 15 15 15zm0 0" fill="#bd00ff" data-original="#000000" style="" class=""></path><path xmlns="http://www.w3.org/2000/svg" d="m195 301h151c8.289062 0 15-6.710938 15-15 0-8.292969-6.710938-15-15-15h-151c-8.289062 0-15 6.707031-15 15 0 8.289062 6.710938 15 15 15zm0 0" fill="#bd00ff" data-original="#000000" style="" class=""></path><path xmlns="http://www.w3.org/2000/svg" d="m346 482c8.289062 0 15-6.710938 15-15 0-8.292969-6.710938-15-15-15h-151c-8.289062 0-15 6.707031-15 15 0 8.289062 6.710938 15 15 15zm0 0" fill="#bd00ff" data-original="#000000" style="" class=""></path><path xmlns="http://www.w3.org/2000/svg" d="m497 211h-302c-8.289062 0-15 6.707031-15 15 0 8.289062 6.710938 15 15 15h302c8.289062 0 15-6.710938 15-15 0-8.292969-6.710938-15-15-15zm0 0" fill="#bd00ff" data-original="#000000" style="" class=""></path><path xmlns="http://www.w3.org/2000/svg" d="m497 392h-302c-8.289062 0-15 6.707031-15 15 0 8.289062 6.710938 15 15 15h302c8.289062 0 15-6.710938 15-15 0-8.292969-6.710938-15-15-15zm0 0" fill="#bd00ff" data-original="#000000" style="" class=""></path><path xmlns="http://www.w3.org/2000/svg" d="m141.710938 118.417969c5.082031-2.550781 8.289062-7.734375 8.289062-13.417969v-60c0-5.683594-3.207031-10.871094-8.289062-13.417969l-60-30c-4.222657-2.109375-9.199219-2.109375-13.421876 0l-60 30c-5.082031 2.546875-8.289062 7.734375-8.289062 13.417969v60c0 5.683594 3.207031 10.867188 8.289062 13.417969l51.710938 25.855469v42.453124l-51.710938 25.855469c-5.082031 2.546875-8.289062 7.734375-8.289062 13.417969v60c0 5.683594 3.207031 10.867188 8.289062 13.417969l51.710938 25.855469v42.453124l-51.710938 25.855469c-5.082031 2.546875-8.289062 7.734375-8.289062 13.417969v60c0 5.683594 3.207031 10.867188 8.289062 13.417969l60 30c2.109376 1.054687 4.410157 1.582031 6.710938 1.582031s4.601562-.527344 6.710938-1.582031l60-30c5.082031-2.550781 8.289062-7.734375 8.289062-13.417969v-60c0-5.683594-3.207031-10.871094-8.289062-13.417969l-51.710938-25.855469v-42.453124l51.710938-25.855469c5.082031-2.550781 8.289062-7.734375 8.289062-13.417969v-60c0-5.683594-3.207031-10.871094-8.289062-13.417969l-51.710938-25.855469v-42.453124zm-66.738282 333.582031c-8.285156 0-15-6.714844-15-15s6.714844-15 15-15 15 6.714844 15 15-6.714844 15-15 15zm0-181c-8.285156 0-15-6.714844-15-15s6.714844-15 15-15 15 6.714844 15 15-6.714844 15-15 15zm0-181c-8.285156 0-15-6.714844-15-15s6.714844-15 15-15 15 6.714844 15 15-6.714844 15-15 15zm0 0" fill="#bd00ff" data-original="#000000" style="" class=""></path></g></svg>