<svg xmlns="http://www.w3.org/2000/svg" version="1.1" xmlns:xlink="http://www.w3.org/1999/xlink" xmlns:svgjs="http://svgjs.com/svgjs" width="512" height="512" x="0" y="0" viewBox="0 0 24 24" style="enable-background:new 0 0 512 512" xml:space="preserve" class=""><g transform="matrix(1.14,0,0,1.14,-1.679999999999998,-1.6764141201972915)"><g xmlns="http://www.w3.org/2000/svg" id="Layer_124" data-name="Layer 124"><path d="m12 4a9 9 0 1 0 9 9 9 9 0 0 0 -9-9zm0 16a7 7 0 1 1 7-7 7 7 0 0 1 -7 7zm3.45-16.17a1 1 0 1 1 1.1-1.66l3 2a1 1 0 0 1 -.55 1.83.94.94 0 0 1 -.55-.17zm-11.28 1.72a1 1 0 0 1 .28-1.38l3-2a1 1 0 1 1 1.1 1.66l-3 2a.94.94 0 0 1 -.55.17 1 1 0 0 1 -.83-.45zm10.54 8.74a1 1 0 0 1 0 1.42 1 1 0 0 1 -1.42 0l-2-2a1 1 0 0 1 -.29-.71v-4a1 1 0 0 1 2 0v3.59z" fill="#ffffff" data-original="#000000" class=""></path></g></g></svg>