<svg width="9" height="10" viewBox="0 0 9 10" fill="none" xmlns="http://www.w3.org/2000/svg">
<path d="M6.0941 8.88614C6.23397 9.00004 6.25613 9.20716 6.14361 9.34874C6.06042 9.45341 5.9643 9.54713 5.86243 9.62392C5.51927 9.89318 5.083 10.0153 4.64973 9.96367C4.21608 9.91201 3.82051 9.69052 3.55056 9.34752C3.4387 9.2054 3.46184 8.99839 3.60224 8.88516C3.74264 8.77193 3.94714 8.79535 4.059 8.93747C4.22181 9.14433 4.46175 9.27868 4.7257 9.31012C4.99005 9.34161 5.25595 9.26719 5.46903 9.10008C5.53186 9.05267 5.58832 8.99762 5.63709 8.93625C5.74962 8.79467 5.95422 8.77223 6.0941 8.88614ZM1.63468 3.84427L1.64049 3.56327C1.64464 3.44308 1.65106 3.33151 1.66049 3.22233C1.80183 1.69603 3.25866 0.543159 4.84756 0.543159H4.8812C6.46925 0.543159 7.92651 1.69522 8.07267 3.2244C8.08106 3.32161 8.08466 3.40796 8.08575 3.52939L8.08617 3.9009C8.08652 3.93474 8.08709 3.9645 8.08796 3.99225L8.09232 4.0848L8.11333 4.17305C8.17969 4.41882 8.29631 4.64859 8.45602 4.84807L8.52709 4.93166L8.55619 4.96902C8.74774 5.25528 8.85717 5.58839 8.87281 5.94715L8.87235 6.13735C8.85898 6.56224 8.70299 6.97259 8.41716 7.31454C8.0386 7.7163 7.52561 7.9659 6.98042 8.01608C5.57252 8.16896 4.15204 8.16896 2.74806 8.01648C2.19911 7.96367 1.68765 7.71482 1.29253 7.29764C1.00117 6.94242 0.846293 6.49518 0.855956 6.04322L0.856355 5.93086C0.873188 5.58722 0.981937 5.25442 1.1712 4.96691L1.20288 4.92615C1.42393 4.68382 1.57505 4.38723 1.64063 4.06749L1.63353 4.09621L1.63468 3.84427ZM4.8812 1.20121H4.84756C3.57504 1.20121 2.41561 2.11873 2.30792 3.28166C2.3024 3.34557 2.29801 3.41149 2.29457 3.48088L2.287 3.70083L2.28392 4.13436L2.27714 4.20124C2.18755 4.63811 1.98138 5.04271 1.6805 5.37256L1.70374 5.34563L1.66218 5.41441C1.58434 5.55467 1.53412 5.707 1.51428 5.85731L1.50604 5.94715L1.50596 6.05028C1.49959 6.35062 1.60107 6.64366 1.7769 6.85939C2.04813 7.1449 2.41504 7.32343 2.81348 7.36178C4.17529 7.50965 5.54927 7.50965 6.91629 7.36126C7.31042 7.32495 7.67708 7.14655 7.93355 6.87524C8.12765 6.64244 8.23023 6.34845 8.22273 6.03904L8.22311 5.96196C8.21316 5.73957 8.14231 5.5239 8.01796 5.33805L8.02514 5.35002L7.96013 5.27376C7.73592 4.99704 7.57306 4.67607 7.48238 4.33202L7.45178 4.20195L7.4457 4.15825C7.44111 4.0944 7.43844 4.03766 7.43702 3.96943L7.43574 3.5428C7.43486 3.43431 7.43193 3.36127 7.42533 3.28472C7.31387 2.11867 6.15336 1.20121 4.8812 1.20121Z" fill="#BD00FF"/>
</svg>
