<svg width="10" height="10" viewBox="0 0 10 10" fill="none" xmlns="http://www.w3.org/2000/svg">
<path d="M4.15571 2.68461C4.19707 2.76678 4.22193 2.85595 4.22908 2.9489L4.41231 5.5373C4.41477 5.57277 4.43157 5.60581 4.459 5.62913C4.47958 5.64661 4.50486 5.65754 4.53312 5.66072L4.56231 5.66127L7.19111 5.50291C7.40459 5.49036 7.61388 5.56465 7.76944 5.70819C7.92501 5.85174 8.01301 6.05179 8.01187 6.28322C7.89495 7.98688 6.64356 9.41113 4.93918 9.78031C3.2348 10.1495 1.48566 9.37517 0.647003 7.88369C0.422744 7.49919 0.271588 7.07863 0.2018 6.65282L0.17946 6.49296C0.160065 6.37324 0.149637 6.25235 0.148132 6.13624L0.149601 6.02195C0.154451 4.24319 1.40334 2.70508 3.16079 2.29022L3.28139 2.26369L3.34627 2.25295C3.68611 2.2065 4.02046 2.38463 4.15571 2.68461ZM3.45711 2.92868L3.41737 2.9332L3.30962 2.95754C1.9097 3.29494 0.905625 4.50014 0.849861 5.92001L0.847429 6.03559C0.844074 6.12352 0.847286 6.21153 0.857892 6.30519L0.870993 6.40093C0.917847 6.8038 1.04793 7.19315 1.256 7.54998C1.94793 8.78044 3.3865 9.41728 4.78825 9.11365C6.19001 8.81003 7.2192 7.63866 7.31456 6.25974C7.31456 6.23898 7.30586 6.21912 7.29041 6.20486C7.28012 6.19536 7.26745 6.18892 7.25402 6.18604L7.23351 6.18445L4.60906 6.34253C4.38757 6.35827 4.16879 6.28702 4.00116 6.14456C3.83352 6.00209 3.73084 5.80015 3.71592 5.58469L3.53285 2.99849C3.53252 2.99421 3.53135 2.99002 3.52332 2.97341C3.51138 2.94698 3.48543 2.93017 3.45711 2.92868ZM5.53527 0.439979C7.55631 0.497146 9.25145 1.94939 9.57571 3.90146L9.58023 3.9561L9.57916 4.05129C9.56782 4.19167 9.51126 4.32518 9.41726 4.43245C9.29922 4.56716 9.13112 4.65026 8.9477 4.66352L5.81367 4.86787C5.41194 4.89057 5.06673 4.59201 5.04061 4.19981L4.8311 1.1229L4.83348 1.05396L4.84389 0.976282C4.87183 0.838551 4.9436 0.712721 5.04928 0.617009C5.182 0.496814 5.35812 0.433168 5.53527 0.439979ZM5.52974 1.12285L5.73716 4.15485C5.73839 4.17327 5.75458 4.18727 5.77033 4.18639L8.88142 3.9829L8.86595 3.898C8.55767 2.36372 7.22783 1.22443 5.6323 1.12771L5.52974 1.12285Z" fill="#BD00FF"/>
</svg>
