<svg width="10" height="11" viewBox="0 0 10 11" fill="none" xmlns="http://www.w3.org/2000/svg">
<path d="M5.15477 0.646843C5.48915 0.646708 5.80934 0.779182 6.04241 1.01409C6.27548 1.24899 6.40158 1.56632 6.39143 1.86248L6.39544 1.93213C6.40358 2.00072 6.42637 2.06692 6.46333 2.12794C6.53534 2.24826 6.65325 2.33557 6.79104 2.37062C6.92884 2.40568 7.0752 2.38559 7.21382 2.30613L7.29108 2.26704C7.87114 1.99986 8.56684 2.21218 8.88858 2.75929L9.17775 3.25092C9.18537 3.26388 9.19209 3.27727 9.19789 3.29101L9.22472 3.34368C9.48336 3.8845 9.29934 4.5278 8.80797 4.85463L8.68664 4.92934C8.6232 4.97267 8.57031 5.02927 8.53054 5.09727C8.45872 5.21806 8.439 5.36193 8.47577 5.497C8.51253 5.63207 8.60274 5.74722 8.73958 5.82473L8.81831 5.87415C9.05616 6.03715 9.22796 6.27739 9.30291 6.55274C9.38747 6.86341 9.34212 7.19428 9.17464 7.47588L8.86356 7.9836L8.81666 8.05522C8.45116 8.57017 7.74151 8.7275 7.19994 8.42123L7.13575 8.38883C7.0688 8.35949 6.99655 8.34337 6.93078 8.34157C6.78771 8.34089 6.6503 8.39627 6.54913 8.49539C6.44796 8.59451 6.39143 8.72914 6.3918 8.88568L6.38798 8.96662C6.33561 9.59334 5.80011 10.0789 5.15492 10.0789H4.57232C3.88903 10.0789 3.33511 9.53624 3.3358 8.8883L3.3318 8.81865C3.32366 8.75006 3.30087 8.68386 3.26203 8.61967C3.1916 8.49905 3.07491 8.41099 2.93789 8.37507C2.80087 8.33914 2.65488 8.35833 2.51357 8.43837L2.42961 8.47945C2.16409 8.59645 1.86459 8.61806 1.58395 8.53992C1.26732 8.45175 0.999602 8.2436 0.843374 7.96728L0.542804 7.45879L0.502801 7.38345C0.229084 6.81739 0.443637 6.1369 0.988168 5.82858L1.03783 5.79811C1.1833 5.69946 1.27053 5.53683 1.27053 5.36289C1.27053 5.17376 1.16754 4.99899 0.987382 4.89671L0.914285 4.85077C0.388692 4.49267 0.228103 3.79739 0.5537 3.24395L0.859906 2.75098C1.20045 2.1719 1.95515 1.97213 2.5356 2.29827L2.59843 2.33108C2.66249 2.35989 2.73207 2.37518 2.79907 2.37588C3.09448 2.37591 3.33516 2.14349 3.33963 1.84557L3.34365 1.75408C3.36784 1.47081 3.49329 1.20461 3.69839 1.0027C3.92978 0.774907 4.24429 0.646843 4.57232 0.646843H5.15477ZM5.15492 1.3296H4.57232C4.42969 1.3296 4.29295 1.38529 4.19234 1.48433C4.10317 1.57211 4.04861 1.68787 4.03904 1.79596L4.03271 1.93975C3.98391 2.56669 3.44926 3.0587 2.79541 3.05862C2.62687 3.05691 2.46071 3.02039 2.29127 2.94368L2.20055 2.8968C1.94206 2.75169 1.61246 2.83893 1.4595 3.09883L1.15329 3.5918C1.01298 3.83038 1.08316 4.1342 1.30041 4.28256L1.42337 4.35885C1.76198 4.58317 1.96741 4.9587 1.96741 5.36289C1.96741 5.76118 1.76772 6.13351 1.42254 6.36723L1.34906 6.41249C1.1072 6.54958 1.01386 6.84561 1.12627 7.07875L1.15282 7.129L1.44957 7.63056C1.51926 7.75375 1.63618 7.84466 1.77446 7.88316C1.89703 7.91729 2.02784 7.90785 2.12989 7.86325L2.18116 7.83866C2.4642 7.67685 2.80148 7.63252 3.11804 7.71551C3.4346 7.79851 3.7042 8.00196 3.86412 8.27592C3.95015 8.41793 4.00458 8.57601 4.02565 8.75772L4.03516 8.92447C4.0645 9.18971 4.2938 9.39618 4.57232 9.39618H5.15492C5.43661 9.39618 5.6706 9.18399 5.69258 8.92404L5.69525 8.8726C5.69367 8.55021 5.82368 8.24058 6.05636 8.01261C6.28904 7.78464 6.60508 7.65726 6.94178 7.65893C7.10698 7.66326 7.26957 7.69953 7.43577 7.77281L7.58479 7.84738C7.81867 7.94796 8.09609 7.87457 8.23671 7.67692L8.27089 7.62457L8.57478 7.12839C8.64661 7.0076 8.66633 6.86374 8.62956 6.72867C8.59698 6.60895 8.52227 6.50449 8.43168 6.442L8.30327 6.36247C8.05775 6.19988 7.87929 5.95534 7.80242 5.67292C7.71786 5.36226 7.7632 5.03138 7.92712 4.75575C8.01685 4.60227 8.14016 4.4703 8.30094 4.36088L8.37674 4.3141C8.61823 4.17572 8.71149 3.87971 8.59989 3.6457L8.56655 3.58272L8.56057 3.5695L8.28477 3.10017C8.15433 2.87836 7.88289 2.78252 7.65256 2.85824L7.60022 2.87879L7.55158 2.90307C7.26946 3.0659 6.93283 3.11209 6.61591 3.03147C6.29899 2.95085 6.02781 2.75003 5.86312 2.47486C5.77709 2.33285 5.72266 2.17477 5.70158 1.99306L5.69539 1.87419C5.69958 1.73117 5.64451 1.59258 5.54272 1.48999C5.44093 1.3874 5.30109 1.3296 5.15492 1.3296ZM4.86575 3.8216C5.73458 3.8216 6.4389 4.51166 6.4389 5.36289C6.4389 6.21412 5.73458 6.90418 4.86575 6.90418C3.99691 6.90418 3.29259 6.21412 3.29259 5.36289C3.29259 4.51166 3.99691 3.8216 4.86575 3.8216ZM4.86575 4.50436C4.38179 4.50436 3.98946 4.88874 3.98946 5.36289C3.98946 5.83704 4.38179 6.22142 4.86575 6.22142C5.3497 6.22142 5.74203 5.83704 5.74203 5.36289C5.74203 4.88874 5.3497 4.50436 4.86575 4.50436Z" fill="#BD00FF"/>
</svg>
